<?xml version="1.0" standalone="no"?>
<!DOCTYPE svg PUBLIC "-//W3C//DTD SVG 20010904//EN"
 "http://www.w3.org/TR/2001/REC-SVG-20010904/DTD/svg10.dtd">
<svg version="1.0" xmlns="http://www.w3.org/2000/svg"
 width="300.000000pt" height="200.000000pt" viewBox="0 0 300.000000 200.000000"
 preserveAspectRatio="xMidYMid meet">
<metadata>
Created by potrace 1.10, written by Peter Selinger 2001-2011
</metadata>
<g transform="translate(0.000000,200.000000) scale(0.100000,-0.100000)" fill="#fee4b3" stroke="none"> 
<path d="M1428 1640 c-70 -12 -171 -66 -223 -119 -56 -56 -88 -122 -109 -221 -24 -116 -43 -161 -90 -210 -64 -66 -76 -89 -76 -140 0 -35 8 -58 32 -96 18 -27 34 -68 37 -93 6 -40 9 -45 46 -59 27 -11 80 -16 167 -16 70 -1 130 -4 133 -8 12 -12 -64 -59 -142 -87 -230 -84 -318 -164 -367 -332 -17 -57 -46 -211 -46 -241 0 -17 41 -18 716 -18 l716 0 -7 63 c-11 103 -55 261 -89 323 -46 83 -155 161 -275 197 -178 53 -191 126 -19 106 31 -4 76 -3 100 2 23 4 64 8 91 9 52 0 57 9 33 55 -16 31 -13 46 21 92 51 67 35 152 -43 235 -56 60 -69 91 -84 196 -6 45 -17 100 -25 123 -16 45 -98 154 -123 164 -160 65 -286 90 -374 75z"/> 
</g> 
<g transform="translate(0.000000,200.000000) scale(0.100000,-0.100000)"
fill="#000000" stroke="none">
<path d="M1403 1635 c-167 -45 -287 -178 -313 -349 -14 -89 -31 -127 -81 -184
-94 -107 -107 -193 -42 -276 32 -41 35 -49 25 -72 -14 -30 -15 -34 -3 -34 5 0
14 14 21 31 12 27 11 33 -8 57 -82 102 -78 167 18 277 56 64 70 96 86 188 25
141 82 232 185 294 98 59 248 81 326 48 35 -15 56 -13 37 4 -35 32 -161 40
-251 16z"/>
<path d="M1684 1591 c3 -4 23 -11 44 -15 99 -15 183 -136 203 -289 14 -109 26
-141 74 -193 92 -99 107 -166 55 -244 -16 -25 -30 -57 -30 -71 0 -29 25 -68
36 -56 4 4 2 13 -4 19 -20 20 -14 61 14 102 31 46 41 101 25 149 -7 19 -38 65
-71 102 -61 69 -64 75 -80 191 -19 142 -83 249 -173 293 -43 21 -103 29 -93
12z"/>
<path d="M1577 1530 c-3 -8 -10 -31 -16 -51 -18 -56 -67 -115 -117 -139 -47
-23 -53 -37 -10 -26 53 13 119 90 145 169 12 36 10 80 -2 47z"/>
<path d="M1645 1492 c-10 -54 -57 -128 -95 -150 -16 -9 -30 -20 -30 -24 0 -33
90 41 110 90 14 32 22 27 50 -30 18 -36 36 -56 65 -72 22 -11 42 -22 44 -23
10 -6 -1 -224 -14 -281 -37 -158 -126 -241 -260 -242 -51 0 -70 5 -115 33
-104 61 -149 163 -159 358 l-6 116 48 22 c59 28 156 121 186 179 12 24 20 47
17 50 -7 7 -6 8 -38 -48 -38 -67 -105 -129 -174 -161 l-61 -29 5 -58 c3 -47 2
-55 -9 -44 -34 32 -79 -3 -79 -61 0 -70 39 -131 90 -142 22 -5 32 -16 45 -52
10 -25 33 -63 53 -85 33 -37 34 -40 27 -95 -12 -100 -24 -112 -162 -154 -214
-66 -309 -166 -362 -379 -25 -102 -41 -210 -30 -210 10 0 16 21 29 114 24 162
88 301 165 360 37 29 152 86 172 86 7 0 33 -23 59 -50 28 -30 73 -63 113 -83
63 -31 70 -32 191 -32 122 0 127 1 192 33 64 32 138 100 138 128 0 19 116 -30
169 -72 97 -75 151 -195 180 -404 9 -68 16 -89 25 -79 2 2 -2 44 -10 94 -47
309 -127 415 -376 495 -121 39 -141 58 -146 144 -4 60 -2 66 33 115 21 29 43
69 50 89 9 26 21 38 40 43 54 15 85 63 87 136 0 37 -4 50 -22 65 -16 13 -27
15 -40 8 -27 -14 -31 -13 -29 13 6 67 -1 95 -24 101 -61 15 -114 91 -127 181
l-7 50 -8 -43z m236 -333 c13 -25 4 -82 -19 -121 -17 -29 -79 -60 -69 -35 3 8
8 44 12 81 6 51 12 70 28 81 28 20 34 19 48 -6z m-672 -3 c11 -14 33 -157 25
-165 -8 -8 -58 35 -71 60 -13 26 -18 101 -6 112 11 12 40 8 52 -7z m202 -391
c60 -34 147 -35 212 -1 l47 23 0 -36 c0 -79 21 -117 86 -157 18 -11 17 -13
-10 -42 -51 -55 -117 -77 -231 -77 -89 0 -106 3 -155 27 -31 15 -68 40 -84 56
l-27 30 38 18 c47 23 73 72 73 137 0 26 2 47 4 47 2 0 24 -11 47 -25z m413
-189 c17 -6 18 -7 0 -34 -109 -168 -454 -181 -598 -21 -20 22 -34 44 -31 49
11 18 36 10 61 -20 66 -78 246 -121 365 -87 65 19 147 71 161 103 6 13 14 22
17 20 3 -2 14 -6 25 -10z"/>
<path d="M1710 1455 c0 -43 82 -136 118 -134 15 0 15 1 -2 12 -47 31 -66 50
-86 92 -23 48 -30 55 -30 30z"/>
<path d="M1342 1270 c-36 -8 -60 -26 -49 -36 4 -4 12 -2 19 3 22 18 73 24 101
14 16 -6 27 -7 27 -1 0 20 -53 30 -98 20z"/>
<path d="M1608 1269 c-25 -14 -23 -33 1 -19 25 13 77 13 102 -1 11 -6 25 -8
32 -6 7 2 -2 11 -20 20 -36 19 -89 22 -115 6z"/>
<path d="M1061 974 c-29 -37 -27 -89 5 -132 33 -42 34 -80 4 -104 -13 -10 -20
-21 -16 -25 3 -4 17 4 31 17 30 29 33 77 6 111 -41 54 -44 67 -21 111 25 48
21 60 -9 22z"/>
<path d="M1943 972 c36 -40 39 -71 11 -129 -22 -48 -24 -59 -13 -84 6 -17 20
-34 30 -40 24 -13 24 -3 -1 28 -11 14 -20 31 -20 37 0 6 9 28 20 49 11 20 20
51 20 68 0 37 -28 89 -49 89 -12 0 -11 -3 2 -18z"/>
<path d="M1866 909 c5 -32 1 -55 -10 -77 -9 -17 -16 -42 -16 -56 0 -26 44 -86
55 -74 4 3 -3 16 -14 27 -25 25 -27 55 -6 104 19 46 19 78 0 103 -13 17 -14
15 -9 -27z"/>
<path d="M1146 924 c-10 -27 -7 -54 14 -94 25 -50 25 -75 -1 -101 -22 -22 -21
-33 3 -24 17 7 38 47 38 73 0 9 -10 33 -21 51 -15 26 -20 45 -16 73 5 38 -6
52 -17 22z"/>
<path d="M1770 824 c-6 -14 -10 -36 -10 -50 0 -29 26 -84 40 -84 14 0 13 7 -6
35 -16 25 -16 70 1 108 4 10 3 17 -4 17 -6 0 -16 -12 -21 -26z"/>
<path d="M1250 821 c14 -28 12 -74 -5 -97 -17 -22 -19 -34 -5 -34 14 0 40 55
40 85 0 31 -16 65 -31 65 -6 0 -6 -7 1 -19z"/>
<path d="M994 344 c10 -27 25 -137 32 -241 4 -57 11 -103 15 -103 12 0 11 49
-1 168 -13 119 -29 192 -42 192 -6 0 -7 -7 -4 -16z"/>
<path d="M1996 283 c-18 -85 -36 -283 -25 -283 9 0 19 54 19 109 1 43 19 162
35 224 4 15 3 27 -2 27 -6 0 -18 -35 -27 -77z"/>
</g>
</svg>
