 <svg  version="1.0" xmlns="http://www.w3.org/2000/svg"  width="300.000000pt" height="200.000000pt" viewBox="0 0 300.000000 200.000000"  preserveAspectRatio="xMidYMid meet">  <g transform="translate(0.000000,200.000000) scale(0.100000,-0.100000)" fill="#fee4b3" stroke="none"> <path d="M1428 1640 c-70 -12 -171 -66 -223 -119 -56 -56 -88 -122 -109 -221 -24 -116 -43 -161 -90 -210 -64 -66 -76 -89 -76 -140 0 -35 8 -58 32 -96 18 -27 34 -68 37 -93 6 -40 9 -45 46 -59 27 -11 80 -16 167 -16 70 -1 130 -4 133 -8 12 -12 -64 -59 -142 -87 -230 -84 -318 -164 -367 -332 -17 -57 -46 -211 -46 -241 0 -17 41 -18 716 -18 l716 0 -7 63 c-11 103 -55 261 -89 323 -46 83 -155 161 -275 197 -178 53 -191 126 -19 106 31 -4 76 -3 100 2 23 4 64 8 91 9 52 0 57 9 33 55 -16 31 -13 46 21 92 51 67 35 152 -43 235 -56 60 -69 91 -84 196 -6 45 -17 100 -25 123 -16 45 -98 154 -123 164 -160 65 -286 90 -374 75z"/> </g> </svg> 